# xmcd CD database file generated by Grip 3.0.7
# 
# Track frame offsets:
#       150
#       14294
#       27782
#       41357
#       53855
#       67729
#       78643
#       88510
#       99807
#       118285
#       128585
#       151687
#       169862
#       183600
#       207438
#       225092
# 
# Disc length: 3177 seconds
# 
# Revision: 2
# Processed by: cddbd v1.5PL3 Copyright (c) Steve Scherf et al.
# Submitted via: Grip 3.0.7
# 
DISCID=ba0c6710
DTITLE=John Lee Hooker - The Very Best Of
DYEAR=1995
DGENRE=Blues
TTITLE0=Boogie Chillen'
TTITLE1=Crawlin' King Snake
TTITLE2=Hobo Blues
TTITLE3=Huckle Up Baby
TTITLE4=I'm In The Mood
TTITLE5=I Need Some Money
TTITLE6=Dimples
TTITLE7=Boom Boom
TTITLE8=Shake It Baby
TTITLE9=Big Legs, Tight Skirt
TTITLE10=It Serves You Right To Suffer
TTITLE11=You Know, I Know
TTITLE12=One Bourbon, One Scotch, One Beer
TTITLE13=I'm Bad Like Jesse James
TTITLE14=Burning Hell
TTITLE15=Terraplane Blues
EXTD=
EXTT0=
EXTT1=
EXTT2=
EXTT3=
EXTT4=
EXTT5=
EXTT6=
EXTT7=
EXTT8=
EXTT9=
EXTT10=
EXTT11=
EXTT12=
EXTT13=
EXTT14=
EXTT15=
PLAYORDER=
